<?xml version="1.0" encoding="UTF-8" standalone="no"?><!DOCTYPE svg PUBLIC "-//W3C//DTD SVG 1.1//EN" "http://www.w3.org/Graphics/SVG/1.1/DTD/svg11.dtd"><svg width="100%" height="100%" viewBox="0 0 2349 960" version="1.1" xmlns="http://www.w3.org/2000/svg" xmlns:xlink="http://www.w3.org/1999/xlink" xml:space="preserve" xmlns:serif="http://www.serif.com/" style="fill-rule:evenodd;clip-rule:evenodd;stroke-linecap:round;stroke-linejoin:round;stroke-miterlimit:1.5;"><g id="Layer3"><rect x="0" y="-0" width="2348.1" height="959.742" style="fill:#fff;"/></g><g id="Layer2"><rect x="89.563" y="608.171" width="1945.51" height="302.169" style="fill:none;stroke:#000;stroke-width:2.08px;"/><rect x="89.951" y="535.854" width="202.136" height="72.065" style="fill:none;stroke:#000;stroke-width:2.08px;"/></g><g id="Layer1"><g transform="matrix(1,0,0,1,-380.607,123.497)"><rect x="979.934" y="560.946" width="60.01" height="56.641" style="fill:#87e878;"/><rect x="1039.94" y="560.946" width="30.005" height="56.641" style="fill:#fdacec;"/><rect x="1069.95" y="560.946" width="30.005" height="56.641" style="fill:#87e878;"/><rect x="1099.95" y="560.946" width="30.005" height="56.641" style="fill:#00abda;"/><rect x="1129.96" y="560.946" width="60.01" height="56.641" style="fill:#87e878;"/><rect x="1189.97" y="560.946" width="60.01" height="56.641" style="fill:#00abda;"/><rect x="1249.98" y="560.946" width="30.005" height="56.641" style="fill:#87e878;"/><text x="859.914px" y="602.571px" style="font-family:'CourierNewPSMT', 'Courier New', monospace;font-size:50px;">....</text><text x="979.934px" y="602.571px" style="font-family:'CourierNewPSMT', 'Courier New', monospace;font-size:50px;">AT</text><text x="1039.94px" y="602.571px" style="font-family:'CourierNewPSMT', 'Courier New', monospace;font-size:50px;">G</text><text x="1069.95px" y="602.571px" style="font-family:'CourierNewPSMT', 'Courier New', monospace;font-size:50px;">C</text><text x="1099.95px" y="602.571px" style="font-family:'CourierNewPSMT', 'Courier New', monospace;font-size:50px;">+</text><text x="1129.96px" y="602.571px" style="font-family:'CourierNewPSMT', 'Courier New', monospace;font-size:50px;">CT</text><text x="1189.97px" y="602.571px" style="font-family:'CourierNewPSMT', 'Courier New', monospace;font-size:50px;">++</text><text x="1249.98px" y="602.571px" style="font-family:'CourierNewPSMT', 'Courier New', monospace;font-size:50px;">A</text><text x="1279.98px" y="602.571px" style="font-family:'CourierNewPSMT', 'Courier New', monospace;font-size:50px;">.....</text></g><text x="132.412px" y="730.671px" style="font-family:'ArialMT', 'Arial', sans-serif;font-size:50px;">reference</text><g><g transform="matrix(1,0,0,1,-449.726,-509.256)"><text x="859.914px" y="602.571px" style="font-family:'CourierNewPSMT', 'Courier New', monospace;font-size:50px;">ATGCCTA</text><text x="859.914px" y="652.571px" style="font-family:'CourierNewPSMT', 'Courier New', monospace;font-size:50px;">0123456</text></g><text x="158.099px" y="100.493px" style="font-family:'ArialMT', 'Arial', sans-serif;font-size:50px;">reference</text></g><g transform="matrix(1,0,0,1,-380.607,195.027)"><rect x="1159.96" y="560.946" width="30.005" height="56.641" style="fill:#87e878;"/><rect x="1189.97" y="560.946" width="60.01" height="56.641" style="fill:#00abda;"/><rect x="1249.98" y="560.946" width="30.005" height="56.641" style="fill:#87e878;"/><rect x="1279.98" y="560.946" width="150.024" height="56.641" style="fill:#c4bfb8;"/><text x="859.914px" y="602.571px" style="font-family:'CourierNewPSMT', 'Courier New', monospace;font-size:50px;">..........</text><text x="1159.96px" y="602.571px" style="font-family:'CourierNewPSMT', 'Courier New', monospace;font-size:50px;">T</text><text x="1189.97px" y="602.571px" style="font-family:'CourierNewPSMT', 'Courier New', monospace;font-size:50px;">CA</text><text x="1249.98px" y="602.571px" style="font-family:'CourierNewPSMT', 'Courier New', monospace;font-size:50px;">A</text><text x="1279.98px" y="602.571px" style="font-family:'CourierNewPSMT', 'Courier New', monospace;font-size:50px;">ATCTC</text></g><text x="132.412px" y="797px" style="font-family:'ArialMT', 'Arial', sans-serif;font-size:50px;">read1 query1</text><g><g transform="matrix(1,0,0,1,-452.802,-393.3)"><text x="859.914px" y="602.571px" style="font-family:'CourierNewPSMT', 'Courier New', monospace;font-size:50px;">TCAAATCTC</text><text x="859.914px" y="652.571px" style="font-family:'CourierNewPSMT', 'Courier New', monospace;font-size:50px;">012345678</text></g><text x="247.521px" y="215.986px" style="font-family:'ArialMT', 'Arial', sans-serif;font-size:50px;">read1</text></g><g><g transform="matrix(1,0,0,1,-452.802,-277.343)"><text x="859.914px" y="602.571px" style="font-family:'CourierNewPSMT', 'Courier New', monospace;font-size:50px;">TTGAGG</text><text x="859.914px" y="652.571px" style="font-family:'CourierNewPSMT', 'Courier New', monospace;font-size:50px;">012345</text></g><text x="241.669px" y="331.942px" style="font-family:'ArialMT', 'Arial', sans-serif;font-size:50px;">read2</text></g><g transform="matrix(1,0,0,1,-380.607,266.557)"><rect x="859.914" y="560.946" width="120.02" height="56.641" style="fill:#c4bfb8;"/><rect x="979.934" y="560.946" width="60.01" height="56.641" style="fill:#87e878;"/><rect x="1039.94" y="560.946" width="30.005" height="56.641" style="fill:#fdacec;"/><rect x="1069.95" y="560.946" width="30.005" height="56.641" style="fill:#87e878;"/><rect x="1099.95" y="560.946" width="30.005" height="56.641" style="fill:#00abda;"/><rect x="1129.96" y="560.946" width="30.005" height="56.641" style="fill:#87e878;"/><text x="859.914px" y="602.571px" style="font-family:'CourierNewPSMT', 'Courier New', monospace;font-size:50px;">TCAA</text><text x="979.934px" y="602.571px" style="font-family:'CourierNewPSMT', 'Courier New', monospace;font-size:50px;">AT</text><text x="1039.94px" y="602.571px" style="font-family:'CourierNewPSMT', 'Courier New', monospace;font-size:50px;">-</text><text x="1069.95px" y="602.571px" style="font-family:'CourierNewPSMT', 'Courier New', monospace;font-size:50px;">C</text><text x="1099.95px" y="602.571px" style="font-family:'CourierNewPSMT', 'Courier New', monospace;font-size:50px;">T</text><text x="1129.96px" y="602.571px" style="font-family:'CourierNewPSMT', 'Courier New', monospace;font-size:50px;">C</text><text x="1159.96px" y="602.571px" style="font-family:'CourierNewPSMT', 'Courier New', monospace;font-size:50px;">.........</text></g><text x="132.412px" y="868.53px" style="font-family:'ArialMT', 'Arial', sans-serif;font-size:50px;">read1 query2</text><g transform="matrix(1,0,0,1,13.902,-207.828)"><text x="1164.11px" y="1010.09px" style="font-family:'ArialMT', 'Arial', sans-serif;font-size:50px;">5       1M2I1M5S</text><text x="1711.53px" y="1010.09px" style="font-family:'CourierNewPSMT', 'Courier New', monospace;font-size:50px;">TCAAATCTC</text></g><text x="95.739px" y="587.933px" style="font-family:'ArialMT', 'Arial', sans-serif;font-size:50px;">.sam ﬁle</text><text x="1095.15px" y="660.243px" style="font-family:'ArialMT', 'Arial', sans-serif;font-size:50px;">ref_start</text><g><g transform="matrix(1,0,0,1,481.154,-831.583)"><rect x="1147.41" y="964.824" width="41.65" height="55.859" style="fill:#87e878;"/><rect x="1147.41" y="1016.46" width="13.892" height="55.859" style="fill:#00abda;"/><rect x="1147.41" y="1068.1" width="36.108" height="55.859" style="fill:#fdacec;"/><rect x="1147.41" y="1119.73" width="33.35" height="55.859" style="fill:#c4bfb8;"/><text x="997.414px" y="1010.09px" style="font-family:'ArialMT', 'Arial', sans-serif;font-size:50px;">0</text><text x="1147.41px" y="1010.09px" style="font-family:'ArialMT', 'Arial', sans-serif;font-size:50px;">M</text><text x="1297.41px" y="1010.09px" style="font-family:'ArialMT', 'Arial', sans-serif;font-size:50px;"><tspan x="1297.41px " y="1010.09px ">M</tspan>atch</text><text x="997.414px" y="1061.72px" style="font-family:'ArialMT', 'Arial', sans-serif;font-size:50px;">1</text><text x="1147.41px" y="1061.72px" style="font-family:'ArialMT', 'Arial', sans-serif;font-size:50px;">I</text><text x="1297.41px" y="1061.72px" style="font-family:'ArialMT', 'Arial', sans-serif;font-size:50px;"><tspan x="1297.41px " y="1061.72px ">I</tspan>nsertion</text><text x="997.414px" y="1113.36px" style="font-family:'ArialMT', 'Arial', sans-serif;font-size:50px;">2</text><text x="1147.41px" y="1113.36px" style="font-family:'ArialMT', 'Arial', sans-serif;font-size:50px;">D</text><text x="1297.41px" y="1113.36px" style="font-family:'ArialMT', 'Arial', sans-serif;font-size:50px;"><tspan x="1297.41px " y="1113.36px ">D</tspan>eletion</text><text x="997.414px" y="1165px" style="font-family:'ArialMT', 'Arial', sans-serif;font-size:50px;">4</text><text x="1147.41px" y="1165px" style="font-family:'ArialMT', 'Arial', sans-serif;font-size:50px;">S</text><text x="1297.41px" y="1165px" style="font-family:'ArialMT', 'Arial', sans-serif;font-size:50px;"><tspan x="1297.41px " y="1165px ">S</tspan>oft Clip</text></g><rect x="1418.04" y="101.144" width="610.014" height="283.627" style="fill:none;stroke:#000;stroke-width:2.08px;"/></g><g transform="matrix(1,0,0,1,183.405,-133.029)"><text x="997.414px" y="1010.09px" style="font-family:'ArialMT', 'Arial', sans-serif;font-size:50px;">0       4S2M1D1M1I1M</text><text x="1539.28px" y="1010.09px" style="font-family:'CourierNewPSMT', 'Courier New', monospace;font-size:50px;">TCAAATCTC</text></g><text x="1339.18px" y="659.657px" style="font-family:'ArialMT', 'Arial', sans-serif;font-size:50px;">CIGAR String</text><text x="1734.41px" y="659.657px" style="font-family:'ArialMT', 'Arial', sans-serif;font-size:50px;">Query Seq</text><path d="M1066.57,490.742l-12.5,25l-12.5,-25c6.25,6.25 18.75,6.25 25,0Z"/><path d="M786.124,206.411l267.943,-0l0,289.331" style="fill:none;stroke:#000;stroke-width:4.17px;"/><text x="832.082px" y="179.687px" style="font-family:'ArialMT', 'Arial', sans-serif;font-size:50px;">alignment</text><path d="M454.002,608.638l0,298.357" style="fill:none;stroke:#000;stroke-width:2.08px;"/><path d="M1076,608.638l0,298.357" style="fill:none;stroke:#000;stroke-width:2.08px;"/><path d="M2034.5,740.692l-957.495,-0" style="fill:none;stroke:#000;stroke-width:2.08px;"/><path d="M1293.3,608.638l-0,298.357" style="fill:none;stroke:#000;stroke-width:2.08px;"/><path d="M1702.83,608.638l0,298.357" style="fill:none;stroke:#000;stroke-width:2.08px;"/></g></svg>