<?xml version="1.0" encoding="UTF-8" standalone="no"?><!DOCTYPE svg PUBLIC "-//W3C//DTD SVG 1.1//EN" "http://www.w3.org/Graphics/SVG/1.1/DTD/svg11.dtd"><svg width="100%" height="100%" viewBox="0 0 2349 777" version="1.1" xmlns="http://www.w3.org/2000/svg" xmlns:xlink="http://www.w3.org/1999/xlink" xml:space="preserve" xmlns:serif="http://www.serif.com/" style="fill-rule:evenodd;clip-rule:evenodd;stroke-linecap:round;stroke-linejoin:round;stroke-miterlimit:1.5;"><g id="Layer3"><rect x="0" y="-0" width="2348.1" height="776.206" style="fill:#fff;"/></g><g id="Layer2"></g><g id="Layer1"><g transform="matrix(1,0,0,1,-283.975,-125.89)"><rect x="859.914" y="560.946" width="90.015" height="56.641" style="fill:#c4bfb8;"/><rect x="949.929" y="560.946" width="90.015" height="56.641" style="fill:#87e878;"/><rect x="1039.94" y="560.946" width="60.01" height="56.641" style="fill:#00abda;"/><rect x="1099.95" y="560.946" width="30.005" height="56.641" style="fill:#87e878;"/><text x="859.914px" y="602.571px" style="font-family:'CourierNewPSMT', 'Courier New', monospace;font-size:50px;">ATG</text><text x="949.929px" y="602.571px" style="font-family:'CourierNewPSMT', 'Courier New', monospace;font-size:50px;">CCT</text><text x="1039.94px" y="602.571px" style="font-family:'CourierNewPSMT', 'Courier New', monospace;font-size:50px;">++</text><text x="1099.95px" y="602.571px" style="font-family:'CourierNewPSMT', 'Courier New', monospace;font-size:50px;">A</text></g><g transform="matrix(1,0,0,1,-192.412,-51.748)"><rect x="859.914" y="560.946" width="90.015" height="56.641" style="fill:#87e878;"/><rect x="949.929" y="560.946" width="60.01" height="56.641" style="fill:#00abda;"/><rect x="1009.94" y="560.946" width="30.005" height="56.641" style="fill:#87e878;"/><text x="859.914px" y="602.571px" style="font-family:'CourierNewPSMT', 'Courier New', monospace;font-size:50px;">CCT</text><text x="949.929px" y="602.571px" style="font-family:'CourierNewPSMT', 'Courier New', monospace;font-size:50px;">CA</text><text x="1009.94px" y="602.571px" style="font-family:'CourierNewPSMT', 'Courier New', monospace;font-size:50px;">A</text></g><text x="144.48px" y="485.675px" style="font-family:'ArialMT', 'Arial', sans-serif;font-size:50px;">reference</text><text x="146.136px" y="555.915px" style="font-family:'ArialMT', 'Arial', sans-serif;font-size:50px;">read2 query3</text><g transform="matrix(1,0,0,1,7.73094,-453.88)"><text x="997.414px" y="1010.09px" style="font-family:'ArialMT', 'Arial', sans-serif;font-size:50px;">3              3M2I1M       reversed</text><text x="1775.44px" y="1010.09px" style="font-family:'CourierNewPSMT', 'Courier New', monospace;font-size:50px;">TTGAGG</text></g><rect x="89.563" y="325.296" width="1945.51" height="258.114" style="fill:none;stroke:#000;stroke-width:2.08px;"/><rect x="89.551" y="252.938" width="202.136" height="72.065" style="fill:none;stroke:#000;stroke-width:2.08px;"/><text x="94.739px" y="305.058px" style="font-family:'ArialMT', 'Arial', sans-serif;font-size:50px;">.sam ﬁle</text><text x="923.599px" y="379.904px" style="font-family:'ArialMT', 'Arial', sans-serif;font-size:50px;">ref_start</text><text x="1143.62px" y="379.782px" style="font-family:'ArialMT', 'Arial', sans-serif;font-size:50px;">CIGAR String</text><text x="1757px" y="379.782px" style="font-family:'ArialMT', 'Arial', sans-serif;font-size:50px;">Query Seq</text><path d="M1066.57,241.136l-12.5,25l-12.5,-25c6.25,6.25 18.75,6.25 25,0Z"/><path d="M786.124,117.891l267.943,-0l0,128.245" style="fill:none;stroke:#000;stroke-width:4.17px;"/><text x="485.473px" y="88.094px" style="font-family:'ArialMT', 'Arial', sans-serif;font-size:50px;">if the alignment is reverse</text><text x="92.961px" y="725.816px" style="font-family:'ArialMT', 'Arial', sans-serif;font-size:50px;">For the calculation of the original query seq position, reverse the CIGAR string</text><path d="M903.954,326.085l0,257.432" style="fill:none;stroke:#000;stroke-width:2.08px;"/><path d="M2030.01,498.611l-1125.05,-0" style="fill:none;stroke:#000;stroke-width:2.08px;"/><path d="M1121.26,326.085l-0,257.432" style="fill:none;stroke:#000;stroke-width:2.08px;"/><path d="M1465.56,326.085l0,257.432" style="fill:none;stroke:#000;stroke-width:2.08px;"/><path d="M1740.72,326.085l0,257.432" style="fill:none;stroke:#000;stroke-width:2.08px;"/></g></svg>